<mxfile host="Electron" agent="Mozilla/5.0 (Macintosh; Intel Mac OS X 10_15_7) AppleWebKit/537.36 (KHTML, like Gecko) draw.io/24.7.17 Chrome/128.0.6613.36 Electron/32.0.1 Safari/537.36" version="24.7.17">
  <diagram name="페이지-1" id="idVUdQJYC0Nd7KIRUOJD">
    <mxGraphModel dx="1406" dy="1026" grid="1" gridSize="10" guides="1" tooltips="1" connect="1" arrows="1" fold="1" page="1" pageScale="1" pageWidth="827" pageHeight="1169" math="0" shadow="0">
      <root>
        <mxCell id="0" />
        <mxCell id="1" parent="0" />
        <mxCell id="RrMSr9BKTNv_k0SDLmSC-1" value="" style="shape=image;verticalLabelPosition=bottom;labelBackgroundColor=default;verticalAlign=top;aspect=fixed;imageAspect=0;image=https://whdrns2013.github.io/assets/images/20241116_002_008.png;" vertex="1" parent="1">
          <mxGeometry y="400" width="827.58" height="440" as="geometry" />
        </mxCell>
        <mxCell id="RrMSr9BKTNv_k0SDLmSC-2" value="" style="endArrow=none;html=1;rounded=0;fillColor=#d80073;strokeColor=#A50040;strokeWidth=3;" edge="1" parent="1">
          <mxGeometry width="50" height="50" relative="1" as="geometry">
            <mxPoint x="546.22" y="798.3299999999999" as="sourcePoint" />
            <mxPoint x="546" y="360" as="targetPoint" />
          </mxGeometry>
        </mxCell>
        <mxCell id="RrMSr9BKTNv_k0SDLmSC-6" value="&lt;span style=&quot;font-size: 29px;&quot;&gt;&lt;b&gt;&lt;font color=&quot;#ff0080&quot;&gt;(1)&lt;/font&gt;&lt;/b&gt;&lt;/span&gt;" style="text;strokeColor=none;align=center;fillColor=none;html=1;verticalAlign=middle;whiteSpace=wrap;rounded=0;" vertex="1" parent="1">
          <mxGeometry x="544.22" y="330" width="60" height="30" as="geometry" />
        </mxCell>
        <mxCell id="RrMSr9BKTNv_k0SDLmSC-65" value="" style="shape=stencil(lVfLbhsxDPyavRKSKIrSOU3/I0Cc2qgbB47Tx9+X7mLtJRsPktt6zZGo4QypnfjudfvwsplKej0dD983v3aPp+3EX6ZSds/bzXF3sqeJ7ye+ezocN9+Oh7fnx/n3y8M58vz04/DzvMLvGTcqjXJGlfRnflMydf735usM2O+eV4A+qFYPEBIA0EFZHYArcQWAROxTqpUS2KEVqtkBhInbbYBUas0BbAkttwG1kfiUtFDutwGs1D2gJxIAKJ2GZ6l3YgDITM0DckqU0m3EIPEsDSsloFVIQ7xSBqyWmNDgpS7vxidqI54YUXQ53SWeYQ1SLLIqqcL8/fpW4wFEIdQ8P82UDnRtbPv1W6MO+LEKi0RAAQXOSo09QIkFnDhTCbJOlBGAaXjzq3kZnOHcGwKpg3hAgPodeqWOVGde9iyNBMtgdQ7txXpgAynlEYU3OiUgjCyUQkqDFO2QqPcI6GCHRiP/lxHYgBdjrY7ckZKiLozTgq3p1+9GAbR+8dY3VQioWY7d1GRXQXyNrc50XYCue8zfjFMRP2WxyUet+VmALi5ZWxk1CyXx3VdsoiCjNWqeU8k0gNFYloRXY7kAwPXvy+AX6H2b2skf2pJE7cimdvHNIiv0jeY4x816AsrQL5xcDg2F3a0FeyVlHD9ifIIzbWTSGA9nPlOXEF/R+rKMyGv+Da2vyxXiUuPF2u/H99jehSqosPXBMGQVinR1B1pVuIGpf+60oWIMr0UGKIGiRgnkZGfOXta54x1avHlZ1ZBxPn2J/wDAHq7fDE+7/X7+5Fj/H78x7NX8fcL3fwE=);lineShape=1;strokeColor=#FF0080;" vertex="1" parent="1">
          <mxGeometry x="492.17588103376215" y="448.95760886045184" width="43.040713431332335" height="32.818405762643444" as="geometry" />
        </mxCell>
        <mxCell id="RrMSr9BKTNv_k0SDLmSC-66" value="" style="shape=stencil(rVfLjtswDPwaXwlJ1PO83f7HApttgqbJIpu+/r50DTkmY09QoDfH4ZgiORxSAz997F/ed0NwH9fL+evu5+H1uh/40xDC4bTfXQ5XeRr4eeCnt/Nl9+Vy/n56nX6/v4yW49O384/xC78mXCvEbUQF93t64xOl8PfN5wlwPJyWgEA+KkBwVAGgRqpeAyoxAJRKoSgAR8oJABw17SF6qmUbkCO5qgGNStwGpEaOFSBl8g4AAlWdpRx6olcBMVHRMeRCDWSJG+WsAEUqkwGAiQ2gUABpDfK3zlJlCiBLwZPXMdRGjbcBQrWsydcSVXAkL2l1GlApIQ+OfNCA1iuzziVid2cPsirMDHcHqiBHxJrbLfd+WrV3VIx9oAJ45MiZElSq4DySn6TtI+xmKbHhhCcHKsbkdD6FdA11GkV9/pJgvSp5nZ8SqSEGiVZU64CBVnimFG0EDjBiJLUJGVPO594kiz6LqAaFovZQCwaIB936zVN80Jg6aGlMhzywDVoGS0UehDbGQ+uJ3ih00Pbeuc6tLSZV6wB1GveqLiKAdaZgOp87tbY6zXzf9S9sdbIpcob67voEm+0Dlvc+hGeaYqWIlMz4yL1X/4t9vlMKoRxQOmGQkd4sDAKEkLaxI1ZGItLqaCmR5k+sU0gqqudZElYBceFM2Wwura8m60mNfRrNAIZBJ28Fnkvv7XVA7vo8A3zfx9brxnYkSOshQPE2S77CGERwqwEwVKOa7FKboT62uynru8Ju7cBGvBxFELEoQ2Rjj6Sr3VXZwXhlhwj2PGgrEmWLJqGUAK/HnUaTKECpEKVlbS9iAFr5tpPd6oXOs5D+Wez6CTcd6D6TPeDBiSxHA+SopCgaCsXeF1s1+MeL12OAPNzueW+H43G6Ji7/t/dCeTXdKfn5Dw==);lineShape=1;strokeColor=#FF0080;" vertex="1" parent="1">
          <mxGeometry x="478.1878960634115" y="461.7621502917036" width="66.0146187723075" height="45.91117623095964" as="geometry" />
        </mxCell>
        <mxCell id="RrMSr9BKTNv_k0SDLmSC-67" value="" style="shape=stencil(lVfZbttADPwavxLLPbnPafofAeLURt04cNzr70tVWNWkpSnyJsucXR4zJLVLD++Hp7f9Lob36+X8df/z+Hw97NKnXYzH18P+crzq0y497tLDy/my/3I5f399nn+/PU2W09O384/phF8zrjeKfULF8Ht+w416+Pvm8ww4HV9vAZFCM4CYqMs2QDLVYgCJqfZtQKvEDtCJgUtVPY4GkAvFCgBMLAZQmGLbBpREYrNUhFLeBuRKybpU67hzFZCEJBhAyxTBDZrEng1AmELcBsRCXC1AqPE2gIWCDbqXQZZ1QCa21OhCBRSO2Ve6d0i+Nph2Yy/APlPv3qGIckSFfcQpbdsHau58pgzODxRskaXCeMOgwGIfIbH1dluAphkD9omKs8/jhHXheFa3OCq43iwoJ2vPkNQc7xxiEgQoI98LYJHqOqBRFZ8iRinV3mM5oTpLoMYKKJbUUqgDEqnOPKsDFXRDo2xp0TMVFHS5U3Kjhm7QsjpAhzd0CrbQHBaur3dU6k75ApWQBu8X+wqVxnf2kQQ0u+A7kTbHDIin0TllptELNuxdvK1DFkXfWVqBnNA+5c7XE8C8+ai9ENt4W6CKZFM8oOrwAAXWirkBqCM2goqpS9XN5AhvSJWC1VnOUJj6t3NJj0ATUx1wwkwBxjAtIjYGJXoFZa59zKNFaDIa2vrEbGMpWAAJbi4Tj13Phh5J92sFw5Ez9TZbBR2iyD56ZYbRzNbt0+DxjT3aZ1UJ3j6DhGrfER9vASXWvsa2AGm0jnX7ZdddWIrz2ak5ZY4tbF2Y4W4J0daOHRI7k3VtQ7JRgOstuhgiFWiK3NrCFa4JH/9o+T9AH/59I70cT6f5E+v2f/9Npa/m77H0+Ac=);lineShape=1;strokeColor=#FF0080;" vertex="1" parent="1">
          <mxGeometry x="487.57820237273904" y="482.66690830042774" width="57.17652981573605" height="38.89666254541333" as="geometry" />
        </mxCell>
        <mxCell id="RrMSr9BKTNv_k0SDLmSC-68" value="" style="shape=stencil(lVfbchoxDP0aXjWyLd+e0/Q/MhNSmNKQIfT299WWekFi93TythgdW5aOjuRNenjfPb1tN5Hfz6fj1+3P/fN5t0mfNjHuX3fb0/6sX5v0uEkPL8fT9svp+P31+fL77WmynL6+HX9MO/y64HoliRMq8u/LSmiU8t+VzxfAYf96CxCSZgAxUuzrgFYoVwNITAEAaqPKFlApMgAEkmIAkkjACSVR6QaQA5W2DsiZoj0hd8qyDpBGbE8ohQoCBAo2rDVRL+uAJMTBAFogruuAWKiLBVSqcR0QOvVkANfcLwP0BHuHPq8sAxI1B+iQS4FJ7B0CMzHiBnHyJ/xbWc6Dj6peQUBUg2dSj1TCuj1Tij4JDfCCvf9N9we0YGqWqLVCfyJVu7/SLoL4ZBJrX5QlID5t1NVs3yigeEYK2QNQwkIe+bnxCJWm6lu0KatxKNRyiO5yVgtVwFIlRXKVFqiCpCkg2kuraHYgwhMtbJp7oIaipCxzPM1jZRkgQ31mQBtUXwZoJVjV1kpDd1AeiLfPsDK7jdHUulAWKFleqHoxkDsedTXnQP0ByjLrzmwvlIA/7JtUVa0DPI1+/yqUwf6qzTY+lamDyv+ofR5VdWOPykbFPdiy0bYriNRKYQvIhRLIgM4RziVtuwJCmpRzVt217WbQoCSPqppHERlddDlI4rOmPE8AULT078YpBi6puhXXAjNUYG0ALqxaqqgQWvYn6AKyb77n6EAI7Dv7KyvxkH3w+zNsIT1RDs4ejQiqhE6JeDS5ZfvilSJg+zryc40PEsZpQrEcEijVau9mkDp66MoQdSddHSrLJOQ2oNql0aipADclaDtBham9JVtK6CyJCvPjz5b/A/Tj+kp62R8Ol0fW7f/+VaVLlxdZevwD);lineShape=1;strokeColor=#FF0080;" vertex="1" parent="1">
          <mxGeometry x="489.04281221982" y="503.74321537181356" width="53.44616569177266" height="35.67359797526398" as="geometry" />
        </mxCell>
        <mxCell id="RrMSr9BKTNv_k0SDLmSC-69" value="" style="shape=stencil(lVfLctswDPwaXTEEQYLkOU3/IzNxak9dO+M4ffx9oapSBNraTm+yhDUB7mIJDvLwtn963Q0xvF0v56+7H4fn636QT0OMh9N+dzlc7WmQx0EeXs6X3ZfL+f30PP1+fRojx6dv5+/jP/yccK0QtxEVw6/pDVfi+ufN5wlwPJzWgEhVHCAKSdwG1EzNA4QppW1AqaTJAxplAYBArTpAKiRgBRWq0QFyopS3ATlTCg6gkVrbBiQlLQ4wJsnbACsxeh6K1QBSsk0Un1JNlEHRRlNTB2hMUbcBrMSeBxMLKppNGt0KjQooupGUPr4C7SkFT1urlEAFQtz9fyYF+TBx7HdIgfACBa+7qtQABYE4+/g4V7SRj3gCRk0AAoQy+3iBktBZ9CuR1oL46lpfGynQKC/OsFoAFqxzoy8AhjvKrd/SkikCio2D6jkrjRLQnJGQvaitz/523haAPQu1QUe1GnInUyEFK3C50am9QQCZ+3bVaIIaIfQ8cDDmwBJLAqsVUEqJguetKRVUwvx1tUcBtH64ccdKGUh1qW6JFyjt0LeCnVqodSJpZ+8JWuPNgWONgDRxNx4zHH0faKGKALU3O2V4Zpq7NJ/SeMiiIzD3Gko2igCOk/SdlpgqcItsKvK9LAnOLrnNolmGnTJXdd9RTQWe59H0QdHFPNg3vzUrmo5Ml8WnpLO07sfXedOXjCgAoZpZdbQtUr9/JnDvXmF2p/vx0ncmNhY7sgN38ejMNx/J3UBLCezPONP4/RR4RJmvdfmkea7aiu+cq1BERhdurKjBTv6YmZaCI7TG0fv9WMHWBWjkNwl1p8Gi2q09/c9Lxb8B9vBxh3k5HI/TFWj9vb/z2KvpviSPvwE=);lineShape=1;strokeColor=#FF0080;" vertex="1" parent="1">
          <mxGeometry x="492.45255012128996" y="521.8704532315164" width="52.50499627558344" height="37.29189922741358" as="geometry" />
        </mxCell>
        <mxCell id="RrMSr9BKTNv_k0SDLmSC-70" value="" style="shape=stencil(lVfLctswDPwaXTEgwOc5Tf8jM3FqT10747ht8veFqso1KGs9uckyl8Rjd0EN+vC2fXrdDMJv59Px++b37vm8HfTLILI7bDen3dmeBn0c9OHleNp8Ox1/Hp6n369P48rx6cfx17jD+4RrmaSOKOGP6Y0ICf9983UC7HeHawBTSh5QSeI6oDJFcQCt1Oo6oASK2QFipSTrgBwoRQdIlWpbB6RAwQNyo1TWATGQBAcohSJIWoWCz6FGankdIEriq9SUGOQgTOpzaImirgNCIfaNa1ZWEFKwkDwgMBMjbpCqP8HKivpAhf36QopyppL6GmVADKbiuV0rZdDmS3aX9dYDUCFjdutZgeMXv38RKB2jjM8315lWt6VGsVufcIel51COVBCHcq8DO+FfT24DGuVFCkjLViNd1AiFZMKpiyZApcWe1tbljKXZVam2Way3AeYWXvwtEgPehboQf5mlcRsQexM2pRUQUuBZKFeABqiXqS7MQgMwPMoLN2IU0LzbZb2JCezPFHz8o59CKYeOFW1u+0o8qaOd8QqQQufqXU0QBfHYev3M+tF8PYdsyinSwWLipEgKOqCB2KdgY5bBXI5C7HOIDKemjdnaTf5ABQCy7dddRiJFACgLBzaHCsCB7TLS/Anm2IAWtcwsvhwAaWcDpnpeM/SWthhRdyasmWHr14P4zXhK7NYXUB+7DnY6uHMbNK/18UQKgEPmOqEbIJSB7Edb8/vfkQ0vZrgNOcERla7DCVKo1Z5CdrNqKIfSc8KaILgJn7yT3wfYw/9PgJfdfj99QVz/338y2Kvpc0Mf/wA=);lineShape=1;strokeColor=#FF0080;" vertex="1" parent="1">
          <mxGeometry x="496.1749110295159" y="543.6528008962665" width="45.251298266829885" height="31.098362947699545" as="geometry" />
        </mxCell>
        <mxCell id="RrMSr9BKTNv_k0SDLmSC-71" value="" style="shape=stencil(hVfLctswDPwaXTEk+ALPafofmYlTa+raGcdpm78PVA1VgbI2N1nGSnjsLqghPLwdn14PA7u32/Xy8/BnfL4dh/BtYB7Px8N1vOnVEB6H8PByuR5+XC/v5+f59+vTFDld/br8np7wd8bVQk4mFLuP+Q47cunfne8z4DSe1wCm6CwgUS37AAmULCAkKnEfUCL5aAAxUaj7gBz7N6RE2e8D9G8fDCArgPcBmgAXA9Akc94HaIkxG4C2oQKANrGwAUyNBkXrmLqUdJQh7AN8pmBTqrX17T6AyXMPqIAahaqlUhXKID62qS7xSxPuJ0TF23hPETBPO2R5JNoCkI8jb58vjgSMwLenLaRQFoF8AollXfHEYGKF2PYzCzk04U1COVNEDV1ksgIk0CFfNwChCFJiprqpWYD4VQfcATJ+Q+51IMoTBEh9SlLIg7EpT7kTjioDSdO3ri+A3B5xv61lI36BbuHVUy21vVPbBmKuFDZaZlB06i1VSxDkXxQ77QdywIIdJRsv0txmJ97ZfISbG+zEF+stpUDtM4nNpzAltHPaklwJoQLWaXzcxAMdqJY7WuuWK6gA3wsnFTiB4ChYLccK3SK65m4LAPtvUvu0bwgMAdn1Naj20BIsSgsrTd1yaPOrozurAyEGXZXU7wSGY9YNI5Z3HtJOWV8trx2M143X8e4L2YfmVKvngxnrBmbu8mcwgOn42J0GSVD+ui66sx1VMC91qe4cVdopZi++dv3Hx9mVby4ILQG1qDZKLgA1S1SD9F6qfo9OzPfP5Kjqrw/xevH/E+BlPJ3mL4j1//0ng96aPzfC4yc=);lineShape=1;strokeColor=#FF0080;" vertex="1" parent="1">
          <mxGeometry x="500.1143333658342" y="563.3954236360813" width="41.524372971509685" height="32.38499961715835" as="geometry" />
        </mxCell>
        <mxCell id="RrMSr9BKTNv_k0SDLmSC-72" value="" style="shape=stencil(lVfLctswDPwaXTF8gzin6X9kJk6tqWtnHKePvy80KhWDkrbtTbawJJbYBaghPrwdn14PQ3Bvt+vl6+HH+Hw7DvHTEMJ4Ph6u402fhvg4xIeXy/Xw5Xp5Pz/Pv1+fpsjp6dvl+7TCzxknTC5PqOB+zf/4SnX+5/MMOI3ne0Cg5AwgJEpxH1AjJTaAmEh4H8CZok0p6Q4gpVLIewPImZzfB2RNwO5QMhW3D0jKwe7ApSW5CVCKTgygJqqAdAhU7A5SiAEHLVO2O4iQByn5RN4WzjtHDrCWVUq6QwXHSrmuKIB4VVKy8bGJcTPeUbb51EoRrL+wW+IjBbi+FFvkSgGcj65mK8CRGNRYT8Oqjl2T1XbFXPPJItNKSQBAKxB6gEcAIbFHWoQyOCLlXDrOAbpfSaeOdKGMAExiOVQPT2kCWBlV3QFZTV9bXYhvLWqPNFthSG7m2waslCe17blXuGJJq9UEATy52gNKQtqrnde4qXFH27GjrD04gIRWjB1swcvbu/6IhoI6xfJlaYx2ekvs4jPsjrnXBHuKoMS5GfEf49WH9vzVmYwKzFQ7ZzoKSKTcj6gcoNGiNnPbXVKAmsvafy2HqN0AzQNp7X+5KuhcBiLS5vOnlywjqsCOzashWOEGOgDY+izi+NVI821mbcdzv76DrplM0sfDiayyTl18QOun1s0/8ncFxJd+xIbmu+14lbXNP0EXaJMK3USDCpLVfBLI9+5GsxD2+DorzSQLIMEST53cUlaNVlSD/75h/x2gDx8X+pfxdJq/B+7f9x8A+tf88RAffwM=);lineShape=1;strokeColor=#FF0080;" vertex="1" parent="1">
          <mxGeometry x="504.3981655268351" y="584.6200971511072" width="38.08903549492203" height="33.59185134530542" as="geometry" />
        </mxCell>
        <mxCell id="RrMSr9BKTNv_k0SDLmSC-73" value="" style="shape=stencil(lVbLctswDPwaXTEAHyB4TtP/yEycWlPXzjju6+8LVUM5oCS0uckS1sQCCyyH+PB2fHo9DAHfbtfL18PP8fl2HOKnIYTxfDxcx5s+DfFxiA8vl+vhy/Xy/fw8/359miKnp2+XH9M//JpxNUHNEyrg7/lNSFDi3zefZ8BpPL8DCIOQAUSCGvYBJQMGA0gBqOwDOEKxgByg4D5AP8dqAMyAeR+gCTAaQBHAug+YKFrSFYFlHxCk1WQBJMhOSlr1xBYgQA5pqhC6lCqIw4FWZVWA22nIxcYXYCc+QRAbH5tUthOCGE28CLBDAAFt00Rl4fQAIVllF4bi5KOisAUtBOQIm3u+qrrsNYAAbYtV6S6Ae01waJy2GahMsT8hOKOmHMRqgjNUBxCxTeJSJGxl2AZEoGQB2VWdAsSWVQgKO4AAYvssBUpyOZAFqFDRAWiVusbpJHizqX3A1WxmbxQyZFslwkXu2whcjb/Oq1NXPaGbzgzB01LfN914HgVs/7Z0QX3EnWZarWBvOql9XeKDu+5Sv4C5NKfbi6ePxBcQu704tX25nb/0us6xNX3Pc7oKJWzjvc0g9gs71KbDbUkwRNszNRVvv+hC5M4S3MERhGgpLMa7HR/6JihjZ7lIbgZwj/dsXA2mlD7eyadSM/l7vHcRUY+P3PElp56VgW0DkruudcRTJ2qoTv2nrWPzoX9tlZXJku8g0x3CpqSulZ11rRzKSnSe7U+71p6gVU3eCR+90v4HQB/uN+iX8XSaL+Dvv/c3bn0139bj4x8=);lineShape=1;strokeColor=#FF0080;" vertex="1" parent="1">
          <mxGeometry x="510.8519156929294" y="606.0364436740113" width="30.24368708680199" height="27.288110289258544" as="geometry" />
        </mxCell>
        <mxCell id="RrMSr9BKTNv_k0SDLmSC-74" value="" style="shape=stencil(lVbZbhsxDPyafSVEURef0/Q/AsSpjbp24Dg9/r7cLuQu5e4EfVvLHInHcMhJHt72T6+7KYa36+X8dffj8HzdT/JpivFw2u8uh6t9TfI4ycPL+bL7cjm/n56X369Ps+X89e38fb7h54LTSqHOqBh+LScxUNM/J58XwPFwWgMCafAApZC2Ae0OkCLVug2ogYoH5ESRtwG5kmQHKJUaeCFl0uIA1WII2wBJo0tNKbZtQMw9iR1giU4gS3PW/QuqlMs2gDMJjwCNABB6iDdAowRiyJSit7cTkKTYaXCzt8oDJgWK3r5lqiCAQNy8vZ1kEDA1b18TNWCfiX0nGBEFsEip+BIb6yLIDydS/0DJVIBDFnG6AyiqQB5pai4p6ByLofkaV4acEGtdz7paKAoACOlQZaYCeG2ANLRahd0vTDzwLpKgLNXxBS0kqJkjZV8HxZLHtROzAzgEKDDMY17tCUTuQk3GGDJoNqHAY5IyiDl0Zq6qkEHId+LSIg6Y2PtvPEL3S9e2FVErmjoUfPMXOwH5aeMY/MDevPX+F4X+sI7Nn1vXmy1aD/KSGnwhpVHvpEIKZRswvsbRxhwQYNNDHWgdiRGg9kF/i4Eystc+MG4eUQKtbxwrvgoByp0NmCHigEnRek+t7AGple/vRwKvttcMyxe+v4z6bm0BmtgGvAwjihLQXr1jhEIlXanaihECSGovVN/HjJcKC6H6EnPri8+/Af+90H4MsI+/+/PL4Xhc1u/1/+O+bUfLri6PvwE=);lineShape=1;strokeColor=#FF0080;" vertex="1" parent="1">
          <mxGeometry x="512.0734379488131" y="625.4277488346627" width="29.925122466829905" height="29.510975275887926" as="geometry" />
        </mxCell>
        <mxCell id="RrMSr9BKTNv_k0SDLmSC-75" value="" style="shape=stencil(rVbLbttADPwaXYld7oPcc5r+R4A4tVE3Dhynj78vVUWqubImKNCbtOJoOSSH5JDuXvcPL7uBw+vlfPq6+3F4vOyH9GlgPjzvd+fDxZ6GdD+ku6fTefflfHp7fpzeXx5Gy/Hp2+n7+IefE65VqjKiOPyaTpgptT8nnyfA8fB8DQg0frsCpEAZAESp+BtyppC2AbUSRwcoMp/cBJRCzbtUlYJsAzL3pDVQATekSOpdsjBI2AZYEHPwACXRbUA0ih4QQ6AAroixZ90aJQaJoNhxqDOr26SJ1dszCfh/IPX+qFABBBZ6i32kCkIUqHl7KaQgy4my90cC/L9Q8vGxQqwVJIApFg/IxKCwLcc5e0CiCgBWRe+fr25oGQAsx3WlBJAz024nTmEq4IbEc04XgEI1G0B8lDRRw1rj5gGNCsgb66pQM2UU1jzHZAEINZRppeajZFJTpE3La+kBAm7QPtHmkQIKua/t9kHpUZY+pgnYmzZ9SC1pFZSFjQCvHRHIl1fatKkDAmpK9zVRLT7An2gOdULI/xlg6vdCqBF2eOtH4nNcmBpSTp3b+TI4E5RaVordaDbxAQ7mcfBps0IR0FJl2Q2WKRXx8G+zEhcOsB+NI6BbR2YXb9tb2Xv7AOvURlKXNTxkTSZNO/sIUtBW3S5Cvq0Q545vRfayqgnYJ2zrUF/WAtv72KZ8POMyITZ0sxrj1vzeY7B1RfGUY50n+xaHbpeKDUrz33fajwH28HeFfjocj9MGfv29X7ntaFrX0/1v);lineShape=1;strokeColor=#FF0080;" vertex="1" parent="1">
          <mxGeometry x="515.0748708822339" y="644.5618226268001" width="31.31332821227836" height="28.255259046103916" as="geometry" />
        </mxCell>
        <mxCell id="RrMSr9BKTNv_k0SDLmSC-76" value="" style="shape=stencil(lVbLbhsxDPyavQ4kUc9zmv5HgDi1UdcOHLdN/r7cLlY1lfUAvclrjvgaDjXJw9v+6XU3Bfd2vZy/734fnq/7Sb5MIRxO+93lcNXTJI+TPLycL7tvl/PP0/Py+/VptpxPP86/5hveF1zLkDSjgvtYvoQGiX+/fF0Ax8PpBlAbSjQAUYC7DyiCUgwgZbh2H5AKvA2pOAQSUgxIzQBqQg33AZKRbEhN4IkHcWgDoKxXbAJChGQLaKhyH+ALooyAXAlAQ/JjSJ54SIjV2gfERBygBFvUTO93cM52raKSmjoke3/xEHK/INh8s9aY0KigWvtUUTLJV1bOdECC86THDnnwIEgkYw1paEGKSMSD6OgMHnpW24CKbIczK7HJcEa/1qQDOE911obxLwWB8FQ9DEnXSImtOXhLpOYRSOMkoA3MVlEj4x8y8qdZY5rnVfMswLtO922ExmQlqVUEUtc+u90+rnzfzmHsW60QUlW3zla359PmxiaojFeScFglvfMor6K8aZ/H+7OjapQ/3c/tK5qtT+rDtx1/QrAOZqYTEsUIZ+VCfRZS0ayUsADPt5RuvTgMMwpftGLVQpBJiUoeOeR5SVXvbM8cpeg8536wZzOjDE5xsGcLRPeXt3MfqLC0tL5TOicQSfy6T4ep14VGdv4sIoNKBAq4EZGOUB0gUqcuhoWgPWMbRFUn2h5r0owU2+/B/waYtunh3/Pz5XA8Lq/X2//H56p+Wp668vgH);lineShape=1;strokeColor=#FF0080;" vertex="1" parent="1">
          <mxGeometry x="521.5270693991934" y="664.9148248939182" width="22.152064178508894" height="20.38555582486705" as="geometry" />
        </mxCell>
        <mxCell id="RrMSr9BKTNv_k0SDLmSC-77" value="" style="shape=stencil(lVbLctswDPwaXTEEQRLkOU3/IzNxak1dO+O4r78vVI0Uga627U2msSS42AU4yMPb8en1MMTwdrtePh++j8+34yAfhhjH8/FwHW/2NcjjIA8vl+vh0/Xy9fw8/359miKnry+Xb9MOP2Zcy5R0QsXwc16JjUr9vfJxBpzG8wZQK7E4gFSqug9QphocIFeKaR+QLaXmAKrE4IQUKfmUGlMBACmUqwfYStkHGCeJPcBWAgCsCWwADQA4LVdcAZUCACgVT1ITagwyohZdvBUy5P34QJJ9PFMAVQsUfbwKFZhP8TUrVgJB9+32LwGWjNfjV9kVEpSQ3a94QKIIMoqme+4BGVBksgv+DtluBWpswg4dSUwNnJAKsU+pmNcAS0mpeifo6r49ACevi0gVAUyWXtgVNxhrJ9p5LS9n/hnAi7M21lFkzrRwsgA4BGg2Nm22/gh063bnzr/QSrFrSIEY1C0sMlhJFUowPniK1LQIisCUfdFMRxUQdNeySyQB+1t8vYsH/FhC4gEJty9pfb8wmQgA2FDKvkFaS84AYP2qs06BZtawdJM1I2hNNU14HzAxoFQrFV9jKzoYgqaYzsnYA1WXfvse38D+0wz2hNoIAu3UHNL3X1LAT9PF5KtnSED+NoA7CdmIENBXNk1hRdjUBZKwI7IvsdUMcqTUvG9MRAFd+n+fa/8AsI/31+HLeDrNj8vt//1r0pbml6g8/gI=);lineShape=1;strokeColor=#FF0080;" vertex="1" parent="1">
          <mxGeometry x="526.0273322864446" y="682.3109757188549" width="19.387004369932583" height="20.236138655073" as="geometry" />
        </mxCell>
        <mxCell id="RrMSr9BKTNv_k0SDLmSC-78" value="" style="shape=stencil(rZbRbtswDEW/xq8ERUqi9Nx1/1Gg6WIsS4o03da/Lz3DqaXUFxuwN8fxkUjeS0qD3r3sH553g/DL5Xz6vvs1Pl72g34ZRMbjfnceL/406P2gd0+n8+7b+fR6fJx/Pz9MX05PP04/pxV+z1xNFHmihN/mN1rI4p83X2fgMB5XQDEybYDEFHUbyEYcGsB8B94GfL0OqJGqbAORKdcWKFTDNqAecWqAwL4piEmYNPVbcNkGQqCYW0CXJT5PgqxNumRSEBFT6apqlEFATKGNJxdS8L1QkVbmCr8vlDpbBMpAg5B70WKCoklebHYFPEZQUc1kqQfMgASZUupDyhk4Nd4UKZCgXrhxanKnApWzUoqtbEYFhOQAW++LAJKeZG13KAmWNckyH1bOZiBcVKod4DlUIJwuf1+BShXkIEpZe4BBDiEuMl2BRAJycLO2VS0FyhDI2m4rvKyw0Z3cTmHz+QFKFCiV1hZCArrTZ0nXnRHOu6A3vWOLE/8TkBfjr5qNAeBTvrQ5exUicvbNyAtMBorkNUltO2cSIIK3TmdsWUL8XIRMoZ3ZDI9ak951+JCy2rua4UHrjR6li99AvtUVsK4+ATTB1FPWC4DOBD9TtQMSnBQfc2HlCXQKrs75K+HnJhDBY4qtyD6eIpgt/3yj+gvAHz4ucE/j4TDf/9b/9xc+fzVfFvX+HQ==);lineShape=1;strokeColor=#FF0080;" vertex="1" parent="1">
          <mxGeometry x="531.4460433255938" y="699.1525417475127" width="12.96546391684307" height="14.35174701738828" as="geometry" />
        </mxCell>
        <mxCell id="RrMSr9BKTNv_k0SDLmSC-79" value="" style="shape=stencil(lVbLbhsxDPyavRIUqec5Tf4jQJx6EdcOHCdt/j7cLnZjyvagvclrjvjQzEiD3r1tH183g/Db6Xh42fwen07bQX8MIuN+uzmOJ1sNej/o3fPhuPl5PLzvn+bfr49T5LT6dfiYdvgz41qmmCeU8Of8JWbS9PfLwwzYjfszQG3UogNkplIBIJBUByiVarwNKEq1OUCtpCBDVgoe0BLFchuQmDR4QIMZNFOqPSC32wDRfqw2aJQhCCn7phscayTphsSUQEVMkvyx2f5gRkxZXHyqS0vXZ7qwZuVRoaqgYe15pI2YwUgTJX9oKtQAQOtSwApgCogWcpEhECPiJQpdBisSiKdcTsm4C3qoQsGXZEU2cAw1UvE8ypEYNG0ZqmeqFSmASCVT8YBqagMnnQtxpwVTBzCAFPsMrUI9x0DBAwIzJlOhXHwKoytIERIVr4e2KvZ61wsR1imZrSEDoOD3NxuMIH7tbz1nIUFq6C0vmS8LjOeLeKRn04Jv2OSJDMkcrOs4NKg2ab3aJtMEPDIxts7zqICKolXkXV6oIJ5qr2bGQjDpahePSFqk3z9AGdhNy57Uq5Cux9eLW21RxdX4Fil29diEAYdMtuobNloF4I9nsj3z7AZmOl3cXvqT7aOa/vfB8w8AW3y/r57H3W5+np3/37/H7NP8ltP7Lw==);lineShape=1;strokeColor=#FF0080;" vertex="1" parent="1">
          <mxGeometry x="535.3237521283061" y="714.5352163344396" width="8.73175362859737" height="10.59095077347111" as="geometry" />
        </mxCell>
        <mxCell id="RrMSr9BKTNv_k0SDLmSC-81" value="" style="shape=stencil(fVbLctswDPwaXXdIgM9zmv5HZuLEmrh2xnHa5u9DViUjUApuFKUlFosFxInv3o4Pr4eJzNvtenk5/Jkfb8eJf0xE8/l4uM63spr4fuK7p8v18Hy9vJ8fl+fXh/plXf26/K4n/F1wySNxRZH5WHZsQEr/dn4ugNN8XgGyh4kCQBnRKIDy2gqAc4hZBVAWgGDgowLgMYfowUqExMiSUooICiAWAkEAcoBVAN6DjJTVGBhFJs5wJEMkRPoeQK7VqQMITqmcZRipa7LITkkCLHMISU2awDIDT6qqDk6KyhHGKwlYeEmohPxfyH1CPX6vgkVUInAYNS1W1RSiZszOCEEhVAWUxvPwSslqgQYbMTgorVAsMBDyLeQ+oJusFyGrKax83HMoRlFEra0iRS3tFJQkajN6adTSsAogbpxaR4JCqQwU5ySgD519q7omygoQNevl1osd0Afnvq4BQRaijmYl6QrgDUCJkNqY7mWIsKw0wzguQlCbx7TT1r5Qzt/4yDG80mw08meC0Ww08ifbpvi+oNtfITUj7hPycDKCV11Xpsswvwoh5XuXQNIS+i/EZ+Q0nK+ZOlqYNPDXGjkZpM04zQJQFl83jaf5dFouKuv3482kbC23Gr7/BA==);lineShape=1;strokeColor=#FFD966;" vertex="1" parent="1">
          <mxGeometry x="465.4083452014006" y="527.3780878202497" width="10.328641210545458" height="10.359021755741399" as="geometry" />
        </mxCell>
        <mxCell id="RrMSr9BKTNv_k0SDLmSC-83" value="" style="shape=stencil(lVbLctswDPwaXXdIggTJc5r+R2bi1J66dsZx+vj7QqMhK7AS2twkCksB2F2QEz28HZ9eD1Nwb/fb9evhx+n5fpzo0xTC6XI83E53eZrocaKHl+vt8OV2fb88L++vT3Pk/PTt+n3e4eeCqx4xzqjgfi0rsYKXlc8L4Hy6rAAloGpAqvC0D0gFISmAbMFlHxAJKStAtQHEcPoPNaPyPiBkJA3wzsG5fYQvqENOBakaAI/gNIBQjCISHOsuMciowcNXFZ8Zxe/H9/paPDOCwbMHe01zQjbySSi6pZERrfwDgu4oVZBRgFQwf1sDes+2AQVFK5UifDZ0lEelirKykVKMSJq0GBAtL/zFgqxkC0BwmgYWgEGbAIa2ZnG4oew5gcGenfrtokUHmocqzBhWoII8WIGRjBrItSZ2QG1bbDPtkcsIiJa4qc24DpCqjBq4ebc3yR56YXR/cfDJdKd2M9d/uDlrluchbEi7C3815a3pUlE1A9FWkcSHj8RLQ3mwWh+Y2zKNcPoP3p6nLKfIYLWW43Z8aQS1+GBKKBNIS0hUa+yfy0iZfeKU2ATWC24TfzteBKDrpcbhNmOSv5Zcaafodjy38b8igIyCxYLDrPPVHI6rM7hTwI31vV+wroFCG07bAKlR+5hsH8tYCBogM9+S3YfvU/8BkIc/17eX0/m83P7W38frniwtV0V6/A0=);lineShape=1;strokeColor=#FFD966;" vertex="1" parent="1">
          <mxGeometry x="458.0493550437907" y="543.1569120788374" width="23.458678283550398" height="19.034425248358577" as="geometry" />
        </mxCell>
        <mxCell id="RrMSr9BKTNv_k0SDLmSC-84" value="" style="shape=stencil(lVbbcttACP0avTIs7I3nNP2PzMSpNXXtjOO0zd8HVaPUYIk2b7pwdvfAObAD373sH553A+HL5Xz6vvs1Pl72A38ZiMbjfnceL/o08P3Ad0+n8+7b+fR6fJzfnx+myOnpx+nntMLvGScZikwowrf5Cxdo/c+XrzPgMB6vAL1DaQaQGTJtA6pAqwZQE5BsAwpB7QbQKvS0DaAOmAxAOggHAASxpBMiIG4jUgasfgtq24AGUmw8gwQcGBhNfG+QgwMhFJcjgRysr/Qs44bQgvMn6Hb9SsBR0XyRS4FUgvUTMFkZSVjk1HzNcgUJdKdHciVTQAsocFp+Xx0p5wCgJbJJKnkxxyogJyjsrVAjAN8ABCQGkNVd61CDLGWVgd2ha5YioVYgC1BlR0plvAG0kMPkBecdJV0DaVTg5AGR+FRpboMCNegXGaqN7/IP87gidIIU9NSP3vNRNIYaEQbMVhVlsffG+cmZs4VmFu/Nom4NjJA0fc45bRkrm4D+GYD202RFpDqUiLLK1HJQWUU10xS6JGmLkkDXjQBtlcuStvV4/W03IMhBkbWhJ8sAFxmuD2b2KYpHmg6YVFx8CYos6EcaLTJfj8/elSrSID/aFdDy7Yuq1uN1xlsXJF4qsg4QT0BnSo9kjTfGVM49yKlugVbXKtyo/SppsiRYZRW0ok/f1/4DoA9/r4dP4+Ew3y6v//vrpH6ar6J8/w4=);lineShape=1;strokeColor=#FFD966;" vertex="1" parent="1">
          <mxGeometry x="452.3106160453806" y="556.8702224952585" width="31.898477684348514" height="26.04414683780083" as="geometry" />
        </mxCell>
        <mxCell id="RrMSr9BKTNv_k0SDLmSC-85" value="" style="shape=stencil(lVZJcttADHwNr10zwKxnx/mHqyxHqiiSS5az/D5QGDICSCLJjRqhZ7B0Axj44W3/9LobKLxdL+fPu2+H5+t+4A8D0eG0310OV/ka+HHgh5fzZffpcn4/PY+/X59ulrevL+evtxu+j7iekPINReHHeEIdIf46+TgCjofTHaBVlKgAnMFhG1CLBaSKlLYBhdG0S1lcom1AjohBAWpA79sAbihFARoh8TaACnJXAMlbyS6AmwZkBCdoimjapd6mN1cBsaAmBYghIDiFiBHZPNERnVKXhUsFwckSI7K2jwh12z6gmiokVCepc3hzmSuq44+QQPsjtPDuZyTtT0nITs0qWBNbeOrdHwlBkyJLipsDqKAFgDwWEbhqQHVfkBpXTewSUZwXOEyUmQEV0REnR3Sd1cp+FQhRy78FNN+looO+9SgvS9UCOrsdacmMLlc4zIsNychfqOFVmkELbf7uUettGJysR+Q8kEBGm4TuNQvbv1qZ6rilTaPlMDXlDfuk/RdWeD2e7JgqZUrx+kyYorvjdXRYt2rvxCsJ6ouplj1aSy8xc9OXZmqT1OfJ/Je5Sba/S/9o3mTOlnQSglMDGZLZeATy7LPtd6JUJ2KRbYvG3htoPSDb+8lRpajciEBY7pRMRrZddaaOv24v6TPdF92Jt8+b1ixKkHd/RzP+05SxdRGHxciUtSE7I1meyBpwy6kXgzQizSFJUnVIITtEMSSSE2fR+e8N9R8A8vFnIX45HI/jPn3/v12g5WhcvvnxJw==);lineShape=1;strokeColor=#FFD966;" vertex="1" parent="1">
          <mxGeometry x="440.4627562965709" y="573.5969628257499" width="47.93988718575484" height="35.30504885152954" as="geometry" />
        </mxCell>
        <mxCell id="RrMSr9BKTNv_k0SDLmSC-86" value="" style="shape=stencil(lVfLbhsxDPyavRKintQ5Tf8jQJzaqGsHjtM2fx9uF6uYjD1obutdjiRyhiN6Sncv24fnzRTDy/l0/Ln5s3s8b6f0bYpxd9huTruzPk3pfkp3T8fT5sfp+Hp4XH4/P8yR89Ov4+95hb8LrheKbUbF8La8iYVC//fm+wLY7w4XAOnUggV06gDQOrHdIQdivg2oQo0NoATK7TagCFUH6BCQhSQagO5Zw21A6r5KrVFAgEAhG4BUSuBI3CnYHHqjLgCQqRcL6CQVAIInTgEtAR4+xTeqEeS8JjjiE7UMDkTBJiBCGQgprBUf8ZEyWD9QsiS3ShHojqk7jlV2BaiIWrciKtQAxbJqcsRHqogw/Ww1VBkmzHUVwMUOEQC0RFUsIEPRKceuNWuHslYzqY6EodvrAOUoWZaZGOVQVpIGoFHEOSTLW49Qp1qlaHnolTrmITlAh0pSptmWlUOA/jK8YewgVEAvZ0ouXn0frM9UXY20m4BWw7raICFTAb2m2VmlNqGIemGldMRHSPJwnqHTRgzim7+jaqIC6/+1eNZy2z4odbW/W33AVta5QgZS83aaZJXhdUk071/zpQVqpJcq29ZUWlDjzN5gd+AE7UUCiaWtrAZ1Pf7TFcVUULx4WajDA5Wq6Du7eNSVeuEFcfGIM21CV1E1eHD+D98ZlMEuUFPI7OsJ3Hq2KTe1QFVrvLMhZjgiXNjaQGQSYFzzkZyG1PtQTcUDlAQBZ9KpxnnRXFXQml8emf8DoA8fE/rTbr9fBvzL736i11fLv4F0/w4=);lineShape=1;strokeColor=#FFD966;" vertex="1" parent="1">
          <mxGeometry x="431.23845141959487" y="594.7607065271518" width="62.631837737308764" height="42.61543115375288" as="geometry" />
        </mxCell>
        <mxCell id="RrMSr9BKTNv_k0SDLmSC-87" value="" style="shape=stencil(rVfLbhsxDPwaXwlJlCjpnKb/ESBObdSNA8d9/X25XWhr0rtTFOhtHxqJ4gyH0o4f3g9Pb/tdCu/Xy/nz/vvx+XrY8YddSsfXw/5yvOrTjh93/PByvuw/Xc5fX5/n97enaeT09OX8bZrhx4zrlUqbUCn8nL/ERqn+/vJxBpyOr7cApiQGkDJNr1uAVqixATATh21AbSTBAHKkGgEgUO8GUAJFsIJEkmwBnVLeBhQmKQYgy65WATkT2xWq5q1tA1goWB5qpwLSmhpFG1IT6ggQ/B6Uyg6ylNKI+GaF0gEgUrLE9UgZZCl2ClZLvVBBAKEYLaBRBmqNicSKr3fqYAWNKPrxVYAySNz4OsS4niOqVqo9jy+r4wM1l6FABdRCoGAp0PIrQHeB2MbfAmaAarUy1UIA8WcviZoogkqrxHZ+6SSIYK19W2jSqIIFYh77u1khFwCod1vWJIAUTTlNPkeMAJG6JUFrvwHSVEXsKjOPKbZWEAfAK8Tl941OkX9plqITah0muw5gajZLWmkC/EuZTjZLMSxqX7d5EldrKg3A9J3Jd4HzR2I3f6IAeA4+Ra2OXrpVy460NKrpv4yvPn4tHVTLsYwmuQDSaELrstOeZ2utFOimnMbZY2n9uAtm9UcHYOiPOp9YEliVCwymtNEkl/OOdhCwaRHKlobEkOaaPQ9TmwO8Ka3uRKVnAaA7lVm2CyR4nmq6ZZtUbexgx9qSXE4D9Dstk1zceFRnk/X48ciL9BDRi4sfyVSdysWTqADC1EbEiY4ysDo1Nt9yRsK2xndnvuPYs+GMd10/Rmi+U0ROchlKbnJOS7FqlNEe/vle8XeAPvy5xrwcT6f5FnT731979NN8ZeLHXw==);lineShape=1;strokeColor=#FFD966;" vertex="1" parent="1">
          <mxGeometry x="419.81471658370583" y="617.007258875675" width="75.36640460872857" height="53.950911155694484" as="geometry" />
        </mxCell>
        <mxCell id="RrMSr9BKTNv_k0SDLmSC-88" value="" style="shape=stencil(lVfLbhsxDPwaXwlK1POcpv8RIE5t1LUDx+nj78vFQluT9o7R23qt0YrDGZLayNPH7uV9u4n8cTmfvm9/7V8vu4182cS4P+625/1FnzbyvJGnt9N5++18+jy+zr/fX6aV09OP089ph98zrjeSNKEi/5nfBKE0v/k6Aw774zUgUesW0Ch1AGDibAAxUwCAligVA5BISdYBtVOwX5A2trgPEGoWkPRNWAcUZalZQKMKYiiRghhA1qjyOiCXQeIC0KhADJl9DEVjAICUKbIFaAxxHSCdso1BeStAGiIUrZZqow4AsY4DDIDmnhEgUqwWoDEAaYRCORiA6jeATIdI2bKkDokIwOPEC6BTAdKolNivRySp38QfqAMlRSqW016o8fp6pm6F1wVSyhTc/soA0J3+a/dvhUKF57H8NHV/Q/E642g5EMBPomKrS60UAP91pH9ZX0ZBu1/vhguv1kdgM1Wcq8B6oIIAyRejpjkBGQ6ZqnON1nik6ULiAHUUjzVAcDYLxCDJeiR2qta8oCPJIHEBqJHQF9j3KfWZAF2rzS2rgVW6IOjshaQfQKwKCfsICqpdvg1OrRcIlUmizwEKeInuKsmIUaZsdaoqKsD4gdqNTAXy4xKmPqhgf/H7P1h/0wpqxraJvnJVxr3jZpYq2nNBK4hLP10ADK2vIu3WmDo3BNTDs++w09wAACn4LKcC+1+qPmjdooJ6nTVoqzupsGBPg5D9gs6DHQ1f2c8hypuAoOtNrdAuwWjiLNQtrdMQDLypPSzbxKm6ULGYvOikAbu4ej1YVhf13l8fPakMOdWhwFUXHqPY2jUhN7ceFdOefdtUrwEVae1kvx4N5Do0uYE8QB9oLXfVUeClZRr67P7p0f7OyQU3A74t12NSXftAdQEzbAd9uW9cSZSBRP//6vgYoA//bqpv+8Nhvuhe/+9vtvpqvhXL818=);lineShape=1;strokeColor=#FFD966;" vertex="1" parent="1">
          <mxGeometry x="393.03588316383843" y="641.3146916754281" width="109.40343526556373" height="74.6294463378009" as="geometry" />
        </mxCell>
        <mxCell id="RrMSr9BKTNv_k0SDLmSC-89" value="" style="shape=stencil(lVhJchsxDHyNriiCO89O8g9XWY5VcSyX7Gy/TysKJQGj6VRu4zF6iKUbALVJd29P96/bTQxv74f9l+2P3cP70yZ92MS4e3naHnbveNqkj5t097g/bD8f9t9eHk5/v94fLY9PX/ffj1/4ecKNLrUeUTH8Or3RIL38efPpBHjevVwDqsRhAVlSI4DoATFI7OuA3qR1C6gSlACi9GYASaXEdUDDCdkCqvRAANG7lHFCXQfULrlYAGIgJ9Qk2bpUVEJaBxQULllAkUpOKMlXugYKyIhBLaBIY4AkLRpAwwmkDgkx2MK1MvN2G5Ak2Rh6kDDWAbFLsCd0sJVwKaovXB+ipNJap1wmAIQvJAaFHmylIanMTgD5Fid0ErSqDFu4AWowQJDiAE0GiQF1s3IYY9L3NrsnDS5NJlA5ZCnZH1BIk4meSOhrkXxfRYevAVMbOpb7fppdbcX+b3Rne3yB1Dh4qaEJRhLvkqWZK2020LM9SEr8zzJs/jtOZA1yZu/KXtlQkFC9/SD+H4eSZVBPUsgQgWjUeVRksIxCUy7kPt+sAhyHlMsyTgqcAZlOHVWf1cFZMSTZJEE1gYTQZiu8smdVKBIX3++UdT7gLo11Oj/SoMpOVenbVpZI2hZU6fxXuomE2UOuKBFJPm/a0zbqVI/FZDDKJem277bEGYR6WkAdtG8dhb+Y+ZmU+Mg5B4iUcwnz17pUGh1/WBKG1Rk2GTbzc55FPe9ebabhNgAqccsatjGiMzhQLJHSoOsgljW1SkiFBo0k+g1Vp7hvA5rnNtTNJmZDw7VkhVwLEVurvkGCXcrWcp3b4tVNgQWNDu32eLR9JfQeC8FluraMxSYFF0kEGPLFUg9jiNnnufld7CNJKday0pw924rQDqs6eyVaw7hY+F+ZP33W55Ifto6j/au7qdHVF/bV+pNmxdfsh81PkUT8v9oqz92IznAc4O51naoM9slNKLpY///t+t8APFwu84+75+fTbwHX//eXf7w6/XCQPv4G);lineShape=1;strokeColor=#FFD966;" vertex="1" parent="1">
          <mxGeometry x="372.85438522190543" y="667.0729832404616" width="134.94061464530446" height="92.64088568965215" as="geometry" />
        </mxCell>
        <mxCell id="RrMSr9BKTNv_k0SDLmSC-90" value="" style="shape=stencil(lVjLctswDPwaXzEkwOc5Tf8jM3FqT1074zh9/H2heqgasLSZ3GQZKxLEYrHSRh7edk+v2w2Ht8v59H37a/982W3ky4Z5f9xtz/uLXm3kcSMPL6fz9tv59H58vv5+fZoip6sfp5/TE35fcb1RqhOKw5/rnRipxH93vl4Bh/3xFpCpiwVkChUAIqVmABwoyzqgFerBAjLVBgBx/D0AEknSOqDqCsUCCqUMALqCPaXElMAKpVJNFlApFgBgKnaFrCuAU8ptpDgDKgVQuCyU7SkVrTTIITXq0QIKBZBDSmPHA1ADrIN06tkCEkXAJcnEtnC1jsosAwJVC1CyFF4HcCHuFpAGWZYBcbB/BnRiwNZYKNo6dKECyKcN6QF1tNQaICQPQOTrnkq9QyrVhfgO6qxVu4tvYD9CbI9UVaqC+JnHc3yBgqH6Y4ndlXYBxQcrSKppAZAoDBLPlKgw3+ifP3EOMEKVwcXz6O3lxiRm3wRo/2UQeI4PlEC8SlHx8Q0xOnhCaAKMDkj1l/0JZVCxyKOlbkogaEs8GDzXWHPuEJAdQODg1Bw86woJGpxeHKdZDXbURk1vuqzCrvSDPMxEX2lLN5d1AQYjiinaBVSG0OBX0rgE1FmAmulurVR3hk4keFlsbWS0Eu85lKmB50dqrm1kDJO1+PqZ+OSNlLZZBefZR9PeDEu4n+QLVj9IoI96zg6hj5osM0IpZFMuykI0jlVabI3VKGXQZSIUbZflDrVOlJP2lHKmgsSUvbXLEU5XdX6uDqlQw07NES9payAvWL1TUz+LBubkNu2xyjxT1vysczlqAhD31DGzzUFrj9Sr3tmi2KB86QwTK0dRxpRYBijVnI+C8qIDINpDSvD5qj6u/+MYEcvx4r1pGO8Ay/G6fHbxEe1f35q6i0fyruOoiYtH8q5q3oKLRyzV8eVsWoTeXaeL2L7hUcC1ePcaqIKJBnK483UZWv3J5domqLjA3XdZx2/K/a4FAnwt/fzL+8cAvfj/reBlfzhcPzXc/u+/Leit63cJefwL);lineShape=1;strokeColor=#FFD966;" vertex="1" parent="1">
          <mxGeometry x="378.2069318531369" y="698.9472047657448" width="136.82174107970502" height="90.40160323881112" as="geometry" />
        </mxCell>
        <mxCell id="RrMSr9BKTNv_k0SDLmSC-91" value="" style="shape=stencil(lVbLctswDPwaXTEkwec5Tf8jM3FqT10747ht8veFqlIVIGk7vckS1sRjd8GBH96OT6+HIbi3++369fDz9Hw/DvxpCOF0OR5up7s8Dfw48MPL9Xb4crt+vzxPv1+fxsjx6dv1x/gP7xOuVeIwooL7mN4ET+x/v/k8Ac6nyxKQqDoNKOTDPqBWckUBoqcITiiVEitAihTaPiDLCUkBcqSa9gEpU9GAEinzPiAmW0MNlMEJHKjoLjVHBZzgK2WvAY0S6JJnysUCKuhS7V/n+Eoe1UzFxEc4Nk+l6hY18nE/3pFvtqVoaBKv6y2ZgoP5RE2KRg3Exz6fBYkyiJd+auFkB/OXgSXdoNTIZUiJFCwggowC94HOKXmqYAQhU9OkyxlyIkgCZghyAiAFO0pGaWI4oAYBOF1DjT3J7ZQKtWyV1lDRkZIRTurU3Qa4zrOFclBKPllP9U7KQlx1FHl1BCgiW8cbbRmQT9xKi6H53ucdsZmxVXFAUPJc3mLM2CxM/sKjBpaIaEebhRA1oB1CrEkhSkDi9/JZJzRqDSS0DUDScV2KM0BoB+TPK7+IBfZUllTRtJNF+8czt9dgoawBsrYQsWXRGs8eLQfsnFHsugbpG5J/lauBGRwUTmW7mLmb5nb8apH73oPt+BWRHJyy7DyzNbHwW6DAJp7ByGQHm7uRh7eElill0x8GPiG2E/RGSL2g7fjW052Nol989uLbihDo1rJwzhmRyAO7liOiFpqfWbhX839egf8NkIe/N+6X0/k8XdiX3+0NXV5Nt3t+/AU=);lineShape=1;strokeColor=#FFD966;" vertex="1" parent="1">
          <mxGeometry x="330.3572254939536" y="745.3239302116444" width="52.50810946790787" height="39.11790397169393" as="geometry" />
        </mxCell>
        <mxCell id="RrMSr9BKTNv_k0SDLmSC-92" value="" style="shape=stencil(lVfLchpBDPyavapmpHlozo7zH64yDlQIuDDO4+8jQpYgwXbKt/Uy7VVL3ZJmkoe39dPrauL0djzsv65+bJ6P60k+Tcyb3Xp12BztaZLHSR5e9ofVl8P+ffd8/vv16XTy9PRt//30H36ecaNTkhOK06/zm9wopT9vPp8B283uGiDExQMGdV4GaKXeHYCVeCwDeo8AaVQUABKpOkARSmUZ0Jg0OUBNVOsyoFYS/4XaacgyoChV/4VWKYEsFQtgOEBnagAgTN2HpGnO210AV6o+rapUAAerqzQHGJUYAJjES6krCZBSiWXrlQpSUpRqF+qIQKZSIkCA8nKhXj2gUAG6yJ1aCKnN0lrKafc5taplEBKnWWcXQCFuAJAp5VjmikgPGl55g6GhjfTwdRsN6iKbbLwZhlIH/rTCBdI5JdiVjKInPQYpMEOdhXkVkaCsUvNKMis0QNk6UojHKIF4LuwuReuzUBbOs6+ZChYqNS+7PqiAeIRGMEKDqmuxYGacjOJJsQAnayKAUNMIGAjQZolddRfFPsiBs9JAmkgxqWpzBYRkVcjBmh1myb5QfEgmo4Lai8YGZjrNgMOHAf0mqzZqwWw27yefJBuEA1Awq7EHVJ0n3X2pmtd8SDbMG+guMqLZbF1oaE7V6Gbp0P3V2oW3p+T5zX373HR5G44DrzxhIbGuXABpW6qKn/7WZBl8QUvs8gWuFzpuFkmqIKBhCw+78wmfZ8olnP876Jb2VJV4Hu21tnu0GA8632KLzLCj2oBhz5fhhLIBlmP+0T5o57vXXIOivpqol25EHSV0RBdYE1fgAgMExtkoIwo6K/ICKFSBRj9+efk/wB7+3ZVeNtvt+ap1/Xu8W9mr871MHn8D);lineShape=1;strokeColor=#FFD966;" vertex="1" parent="1">
          <mxGeometry x="447.5692328731177" y="722.3607856635676" width="81.44022004027627" height="64.31200950471127" as="geometry" />
        </mxCell>
        <mxCell id="RrMSr9BKTNv_k0SDLmSC-93" value="" style="shape=stencil(rVbLbttADPwaXQku98Hdc5r+R4A4tVDXDhynj78vVUGyuY6mKNCbLHG85OxwyCE+vO2fXneD8NvlfPq6+zE+X/ZD/DSIjMf97jxe7GmIj0N8eDmdd1/Op/fj8/z79WmKnJ6+nb5P//BzxrVCQSaU8K/5jWTS+ufN5xlwGI+3AKbiAVEo6zZAldQDklJL24BSqKgD5EYlbwNyIs0OoEyBtwEpUGEHqEJRtgFSqfoaWiQp24AYqEV/QqYMihYrsfgTAiVQg11Tqx5QiEFKEij6olsjjtuAYP/nTwjMxCCnwFSbP8KIA9ooC4lrvIkP1UCl9iShhJjy3S0wyMfK89eslUoABZN08ULSgCyoeX5M6wryqcRe2MUYQFcm1HzrFF5u/WNAJUk9AInCSuhUVAJVJGxdMl4B1gmgmyMvlNx0MxKF+U/0rGqBBjMBOllESqBoSyl73dUGa7Cio6e1pcXUPgbIkvFN5wg4IejC+k03NyRV6WswQAJGb7YdfLzCXoukntQmpOAWwtKJK6dKAcSv1rPGMxxU3OtO03Ip/yXeWid785rmEEgort6wDkLzAzSmymKe66hNsDlL6DkyXaGZoLEfUyYiMAfVPvuaI2z+etdpAVI02bOPZ0rIH3Uh8BqPNNpWyVzjI/Brm/I5dPkXwI+NrxY6ftD8sJaqns8C1wpr2c6uG1wSJk/wCjIbqMhW+K7NbA1IqOTWW11oUNVmbN2QNZIYbZz/vKL+HWAP1434ZTwc5oX69nu/QdurefuOj78B);lineShape=1;strokeColor=#FFD966;" vertex="1" parent="1">
          <mxGeometry x="493.3928872878698" y="745.8247879532523" width="47.63744429073833" height="38.696754134067504" as="geometry" />
        </mxCell>
        <mxCell id="RrMSr9BKTNv_k0SDLmSC-94" value="" style="shape=stencil(lVZdcxshDPw197qDEAh4TtP/kZk4taeunXHcNvn31fWGq0XPmvbtPlhAu6uFiR/e9k+vuymGt+vl/HX38/B83U/8aYrxcNrvLoerPk38OPHDy/my+3I5fz89L++vT/PI+enb+cc8w/uCawxKMyqGj+VLquD2+8vnBXA8nG4AlfvvDhBCCfcBmdEsoCVIug9IDBELqGhyH8ARiSygoTkrREKKFlCQnBWIULMFaNHVqQFSzXilLTskBYjlqDCSo0JALFaEiOKM19nsfnJEjvfHK392vIpSPIIagi2AlVF2JGioVmROIKeCRKA8AtiRIFNn5GZLrdwHSBh9l1RGRzQRVNs76vXssCQNMsimzeGwJHVkqeiWyAGkbrPVeKlLv81SQWDrbN8ZqSAO3VlQnRVYQNZLFAKCw6t2z+A+DQDx3JdQhwBYQ2ebJhTrpSpuuxHEklQELXvtGawKahV2xkcEm0c5ozoilL7b1am6f2d+Wqdbe6EhOgvMAPoL4Dh1zmDbC5o5wdFMe2vgSEOWPOO1MbSlZ862s3OXaN2Rm0jaitHOH8BOASWM+eK7ulREyxCBnTiqGWRNl9yDWU+kMJja7cuWxzDSNsoeoKJYT2gF5FRw0+crovb02F6i9WN4tV12RdPsGUmK/WjcBvzvfecfAPrw53r1cjgel9vZ7f/xOqaflqscP/4C);lineShape=1;strokeColor=#FFD966;" vertex="1" parent="1">
          <mxGeometry x="526.0443001355316" y="767.6197197094955" width="16.786945656180453" height="17.709867986777883" as="geometry" />
        </mxCell>
        <mxCell id="RrMSr9BKTNv_k0SDLmSC-96" value="&lt;span style=&quot;font-size: 29px;&quot;&gt;&lt;b&gt;&lt;font color=&quot;#4d9900&quot;&gt;(2)&lt;/font&gt;&lt;/b&gt;&lt;/span&gt;" style="text;strokeColor=none;align=center;fillColor=none;html=1;verticalAlign=middle;whiteSpace=wrap;rounded=0;" vertex="1" parent="1">
          <mxGeometry x="471.45" y="330" width="60" height="30" as="geometry" />
        </mxCell>
        <mxCell id="RrMSr9BKTNv_k0SDLmSC-97" value="" style="endArrow=none;html=1;rounded=0;fillColor=#60a917;strokeColor=#2D7600;strokeWidth=3;" edge="1" parent="1">
          <mxGeometry width="50" height="50" relative="1" as="geometry">
            <mxPoint x="474.96000000000004" y="798.7499999999999" as="sourcePoint" />
            <mxPoint x="474.74" y="360.42" as="targetPoint" />
          </mxGeometry>
        </mxCell>
        <mxCell id="RrMSr9BKTNv_k0SDLmSC-99" value="" style="endArrow=none;html=1;rounded=0;entryX=0.364;entryY=0.609;entryDx=0;entryDy=0;entryPerimeter=0;curved=1;strokeWidth=3;dashed=1;" edge="1" parent="1" target="RrMSr9BKTNv_k0SDLmSC-90">
          <mxGeometry width="50" height="50" relative="1" as="geometry">
            <mxPoint x="330" y="900" as="sourcePoint" />
            <mxPoint x="460" y="860" as="targetPoint" />
            <Array as="points">
              <mxPoint x="440" y="860" />
            </Array>
          </mxGeometry>
        </mxCell>
        <mxCell id="RrMSr9BKTNv_k0SDLmSC-100" value="&lt;span style=&quot;font-size: 29px;&quot;&gt;&lt;b style=&quot;&quot;&gt;e1&lt;/b&gt;&lt;/span&gt;" style="text;strokeColor=none;align=center;fillColor=none;html=1;verticalAlign=middle;whiteSpace=wrap;rounded=0;" vertex="1" parent="1">
          <mxGeometry x="270.35999999999996" y="890" width="60" height="30" as="geometry" />
        </mxCell>
        <mxCell id="RrMSr9BKTNv_k0SDLmSC-101" value="" style="endArrow=none;html=1;rounded=0;entryX=0.364;entryY=0.609;entryDx=0;entryDy=0;entryPerimeter=0;curved=1;strokeWidth=3;dashed=1;" edge="1" parent="1">
          <mxGeometry width="50" height="50" relative="1" as="geometry">
            <mxPoint x="460" y="900" as="sourcePoint" />
            <mxPoint x="514.04" y="759.71" as="targetPoint" />
            <Array as="points">
              <mxPoint x="526.04" y="865.71" />
            </Array>
          </mxGeometry>
        </mxCell>
        <mxCell id="RrMSr9BKTNv_k0SDLmSC-102" value="&lt;span style=&quot;font-size: 29px;&quot;&gt;&lt;b style=&quot;&quot;&gt;e2&lt;/b&gt;&lt;/span&gt;" style="text;strokeColor=none;align=center;fillColor=none;html=1;verticalAlign=middle;whiteSpace=wrap;rounded=0;" vertex="1" parent="1">
          <mxGeometry x="405.40999999999997" y="900" width="60" height="30" as="geometry" />
        </mxCell>
        <mxCell id="RrMSr9BKTNv_k0SDLmSC-103" value="" style="endArrow=none;html=1;rounded=0;entryX=0.518;entryY=0.533;entryDx=0;entryDy=0;entryPerimeter=0;curved=1;strokeWidth=3;dashed=1;" edge="1" parent="1" target="RrMSr9BKTNv_k0SDLmSC-74">
          <mxGeometry width="50" height="50" relative="1" as="geometry">
            <mxPoint x="630" y="880" as="sourcePoint" />
            <mxPoint x="644.04" y="745.32" as="targetPoint" />
            <Array as="points">
              <mxPoint x="656.04" y="851.32" />
            </Array>
          </mxGeometry>
        </mxCell>
        <mxCell id="RrMSr9BKTNv_k0SDLmSC-104" value="&lt;span style=&quot;font-size: 29px;&quot;&gt;&lt;b style=&quot;&quot;&gt;e3&lt;/b&gt;&lt;/span&gt;" style="text;strokeColor=none;align=center;fillColor=none;html=1;verticalAlign=middle;whiteSpace=wrap;rounded=0;" vertex="1" parent="1">
          <mxGeometry x="590" y="890" width="60" height="30" as="geometry" />
        </mxCell>
      </root>
    </mxGraphModel>
  </diagram>
</mxfile>
